<svg width="305" height="82" viewBox="0 0 305 82" fill="none" xmlns="http://www.w3.org/2000/svg">
<path d="M101.898 23.9395C101.74 25.293 101.239 26.3389 100.396 27.0771C99.5576 27.8096 98.4414 28.1758 97.0469 28.1758C95.5352 28.1758 94.3223 27.6338 93.4082 26.5498C92.5 25.4658 92.0459 24.0156 92.0459 22.1992V20.9688C92.0459 19.7793 92.2568 18.7334 92.6787 17.8311C93.1064 16.9287 93.71 16.2373 94.4893 15.7568C95.2686 15.2705 96.1709 15.0273 97.1963 15.0273C98.5557 15.0273 99.6455 15.4082 100.466 16.1699C101.286 16.9258 101.764 17.9746 101.898 19.3164H100.202C100.056 18.2969 99.7363 17.5586 99.2441 17.1016C98.7578 16.6445 98.0752 16.416 97.1963 16.416C96.1182 16.416 95.2715 16.8145 94.6562 17.6113C94.0469 18.4082 93.7422 19.542 93.7422 21.0127V22.252C93.7422 23.6406 94.0322 24.7451 94.6123 25.5654C95.1924 26.3857 96.0039 26.7959 97.0469 26.7959C97.9844 26.7959 98.7021 26.585 99.2002 26.1631C99.7041 25.7354 100.038 24.9941 100.202 23.9395H101.898ZM107.901 28.1758C106.612 28.1758 105.563 27.7539 104.755 26.9102C103.946 26.0605 103.542 24.9268 103.542 23.5088V23.21C103.542 22.2666 103.721 21.4258 104.078 20.6875C104.441 19.9434 104.945 19.3633 105.59 18.9473C106.24 18.5254 106.943 18.3145 107.699 18.3145C108.936 18.3145 109.896 18.7217 110.582 19.5361C111.268 20.3506 111.61 21.5166 111.61 23.0342V23.7109H105.168C105.191 24.6484 105.464 25.4072 105.985 25.9873C106.513 26.5615 107.181 26.8486 107.989 26.8486C108.563 26.8486 109.05 26.7314 109.448 26.4971C109.847 26.2627 110.195 25.9521 110.494 25.5654L111.487 26.3389C110.69 27.5635 109.495 28.1758 107.901 28.1758ZM107.699 19.6504C107.043 19.6504 106.492 19.8906 106.047 20.3711C105.602 20.8457 105.326 21.5137 105.221 22.375H109.984V22.252C109.938 21.4258 109.715 20.7871 109.316 20.3359C108.918 19.8789 108.379 19.6504 107.699 19.6504ZM115.038 18.4902L115.091 19.6855C115.817 18.7715 116.767 18.3145 117.938 18.3145C119.948 18.3145 120.962 19.4482 120.979 21.7158V28H119.354V21.707C119.348 21.0215 119.189 20.5146 118.879 20.1865C118.574 19.8584 118.097 19.6943 117.446 19.6943C116.919 19.6943 116.456 19.835 116.058 20.1162C115.659 20.3975 115.349 20.7666 115.126 21.2236V28H113.5V18.4902H115.038ZM125.638 16.1875V18.4902H127.413V19.7471H125.638V25.6445C125.638 26.0254 125.717 26.3125 125.875 26.5059C126.033 26.6934 126.303 26.7871 126.684 26.7871C126.871 26.7871 127.129 26.752 127.457 26.6816V28C127.029 28.1172 126.613 28.1758 126.209 28.1758C125.482 28.1758 124.935 27.9561 124.565 27.5166C124.196 27.0771 124.012 26.4531 124.012 25.6445V19.7471H122.28V18.4902H124.012V16.1875H125.638ZM133.917 19.9492C133.671 19.9082 133.404 19.8877 133.117 19.8877C132.051 19.8877 131.327 20.3418 130.946 21.25V28H129.32V18.4902H130.902L130.929 19.5889C131.462 18.7393 132.218 18.3145 133.196 18.3145C133.513 18.3145 133.753 18.3555 133.917 18.4375V19.9492ZM134.813 23.1572C134.813 22.2256 134.995 21.3877 135.358 20.6436C135.728 19.8994 136.237 19.3252 136.888 18.9209C137.544 18.5166 138.291 18.3145 139.129 18.3145C140.424 18.3145 141.47 18.7627 142.267 19.6592C143.069 20.5557 143.471 21.748 143.471 23.2363V23.3506C143.471 24.2764 143.292 25.1084 142.935 25.8467C142.583 26.5791 142.076 27.1504 141.414 27.5605C140.758 27.9707 140.002 28.1758 139.146 28.1758C137.857 28.1758 136.812 27.7275 136.009 26.8311C135.212 25.9346 134.813 24.748 134.813 23.2715V23.1572ZM136.448 23.3506C136.448 24.4053 136.691 25.252 137.178 25.8906C137.67 26.5293 138.326 26.8486 139.146 26.8486C139.973 26.8486 140.629 26.5264 141.115 25.8818C141.602 25.2314 141.845 24.3232 141.845 23.1572C141.845 22.1143 141.596 21.2705 141.098 20.626C140.605 19.9756 139.949 19.6504 139.129 19.6504C138.326 19.6504 137.679 19.9697 137.187 20.6084C136.694 21.2471 136.448 22.1611 136.448 23.3506ZM149.579 23.166C149.579 21.707 149.925 20.5352 150.616 19.6504C151.308 18.7598 152.213 18.3145 153.332 18.3145C154.445 18.3145 155.327 18.6953 155.978 19.457V14.5H157.604V28H156.109L156.03 26.9805C155.38 27.7773 154.475 28.1758 153.314 28.1758C152.213 28.1758 151.313 27.7246 150.616 26.8223C149.925 25.9199 149.579 24.7422 149.579 23.2891V23.166ZM151.205 23.3506C151.205 24.4287 151.428 25.2725 151.873 25.8818C152.318 26.4912 152.934 26.7959 153.719 26.7959C154.75 26.7959 155.503 26.333 155.978 25.4072V21.0391C155.491 20.1426 154.744 19.6943 153.736 19.6943C152.939 19.6943 152.318 20.002 151.873 20.6172C151.428 21.2324 151.205 22.1436 151.205 23.3506ZM164.081 28.1758C162.792 28.1758 161.743 27.7539 160.935 26.9102C160.126 26.0605 159.722 24.9268 159.722 23.5088V23.21C159.722 22.2666 159.9 21.4258 160.258 20.6875C160.621 19.9434 161.125 19.3633 161.77 18.9473C162.42 18.5254 163.123 18.3145 163.879 18.3145C165.115 18.3145 166.076 18.7217 166.762 19.5361C167.447 20.3506 167.79 21.5166 167.79 23.0342V23.7109H161.348C161.371 24.6484 161.644 25.4072 162.165 25.9873C162.692 26.5615 163.36 26.8486 164.169 26.8486C164.743 26.8486 165.229 26.7314 165.628 26.4971C166.026 26.2627 166.375 25.9521 166.674 25.5654L167.667 26.3389C166.87 27.5635 165.675 28.1758 164.081 28.1758ZM163.879 19.6504C163.223 19.6504 162.672 19.8906 162.227 20.3711C161.781 20.8457 161.506 21.5137 161.4 22.375H166.164V22.252C166.117 21.4258 165.895 20.7871 165.496 20.3359C165.098 19.8789 164.559 19.6504 163.879 19.6504ZM179.093 22.8232H176.087V28H174.391V15.2031H178.627C180.068 15.2031 181.176 15.5312 181.949 16.1875C182.729 16.8438 183.118 17.7988 183.118 19.0527C183.118 19.8496 182.901 20.5439 182.468 21.1357C182.04 21.7275 181.442 22.1699 180.675 22.4629L183.681 27.8945V28H181.87L179.093 22.8232ZM176.087 21.4434H178.68C179.518 21.4434 180.183 21.2266 180.675 20.793C181.173 20.3594 181.422 19.7793 181.422 19.0527C181.422 18.2617 181.185 17.6553 180.71 17.2334C180.241 16.8115 179.562 16.5977 178.671 16.5918H176.087V21.4434ZM189.183 28.1758C187.894 28.1758 186.845 27.7539 186.036 26.9102C185.228 26.0605 184.823 24.9268 184.823 23.5088V23.21C184.823 22.2666 185.002 21.4258 185.359 20.6875C185.723 19.9434 186.227 19.3633 186.871 18.9473C187.521 18.5254 188.225 18.3145 188.98 18.3145C190.217 18.3145 191.178 18.7217 191.863 19.5361C192.549 20.3506 192.892 21.5166 192.892 23.0342V23.7109H186.449C186.473 24.6484 186.745 25.4072 187.267 25.9873C187.794 26.5615 188.462 26.8486 189.271 26.8486C189.845 26.8486 190.331 26.7314 190.729 26.4971C191.128 26.2627 191.477 25.9521 191.775 25.5654L192.769 26.3389C191.972 27.5635 190.776 28.1758 189.183 28.1758ZM188.98 19.6504C188.324 19.6504 187.773 19.8906 187.328 20.3711C186.883 20.8457 186.607 21.5137 186.502 22.375H191.266V22.252C191.219 21.4258 190.996 20.7871 190.598 20.3359C190.199 19.8789 189.66 19.6504 188.98 19.6504ZM202.814 23.3506C202.814 24.7979 202.483 25.9639 201.821 26.8486C201.159 27.7334 200.263 28.1758 199.132 28.1758C197.978 28.1758 197.069 27.8096 196.407 27.0771V31.6562H194.781V18.4902H196.267L196.346 19.5449C197.008 18.7246 197.928 18.3145 199.105 18.3145C200.248 18.3145 201.15 18.7451 201.812 19.6064C202.48 20.4678 202.814 21.666 202.814 23.2012V23.3506ZM201.188 23.166C201.188 22.0938 200.96 21.2471 200.503 20.626C200.046 20.0049 199.419 19.6943 198.622 19.6943C197.638 19.6943 196.899 20.1309 196.407 21.0039V25.5479C196.894 26.415 197.638 26.8486 198.64 26.8486C199.419 26.8486 200.037 26.541 200.494 25.9258C200.957 25.3047 201.188 24.3848 201.188 23.166ZM210.76 28C210.666 27.8125 210.59 27.4785 210.531 26.998C209.775 27.7832 208.873 28.1758 207.824 28.1758C206.887 28.1758 206.116 27.9121 205.513 27.3848C204.915 26.8516 204.616 26.1777 204.616 25.3633C204.616 24.373 204.991 23.6055 205.741 23.0605C206.497 22.5098 207.558 22.2344 208.923 22.2344H210.505V21.4873C210.505 20.9189 210.335 20.4678 209.995 20.1338C209.655 19.7939 209.154 19.624 208.492 19.624C207.912 19.624 207.426 19.7705 207.033 20.0635C206.641 20.3564 206.444 20.7109 206.444 21.127H204.81C204.81 20.6523 204.977 20.1953 205.311 19.7559C205.65 19.3105 206.107 18.959 206.682 18.7012C207.262 18.4434 207.897 18.3145 208.589 18.3145C209.685 18.3145 210.543 18.5898 211.164 19.1406C211.785 19.6855 212.107 20.4385 212.131 21.3994V25.7764C212.131 26.6494 212.242 27.3438 212.465 27.8594V28H210.76ZM208.062 26.7607C208.571 26.7607 209.055 26.6289 209.512 26.3652C209.969 26.1016 210.3 25.7588 210.505 25.3369V23.3857H209.23C207.238 23.3857 206.242 23.9688 206.242 25.1348C206.242 25.6445 206.412 26.043 206.752 26.3301C207.092 26.6172 207.528 26.7607 208.062 26.7607ZM219.276 19.9492C219.03 19.9082 218.764 19.8877 218.477 19.8877C217.41 19.8877 216.687 20.3418 216.306 21.25V28H214.68V18.4902H216.262L216.288 19.5889C216.821 18.7393 217.577 18.3145 218.556 18.3145C218.872 18.3145 219.112 18.3555 219.276 18.4375V19.9492ZM226.299 28C226.205 27.8125 226.129 27.4785 226.07 26.998C225.314 27.7832 224.412 28.1758 223.363 28.1758C222.426 28.1758 221.655 27.9121 221.052 27.3848C220.454 26.8516 220.155 26.1777 220.155 25.3633C220.155 24.373 220.53 23.6055 221.28 23.0605C222.036 22.5098 223.097 22.2344 224.462 22.2344H226.044V21.4873C226.044 20.9189 225.874 20.4678 225.534 20.1338C225.194 19.7939 224.693 19.624 224.031 19.624C223.451 19.624 222.965 19.7705 222.572 20.0635C222.18 20.3564 221.983 20.7109 221.983 21.127H220.349C220.349 20.6523 220.516 20.1953 220.85 19.7559C221.189 19.3105 221.646 18.959 222.221 18.7012C222.801 18.4434 223.437 18.3145 224.128 18.3145C225.224 18.3145 226.082 18.5898 226.703 19.1406C227.324 19.6855 227.646 20.4385 227.67 21.3994V25.7764C227.67 26.6494 227.781 27.3438 228.004 27.8594V28H226.299ZM223.601 26.7607C224.11 26.7607 224.594 26.6289 225.051 26.3652C225.508 26.1016 225.839 25.7588 226.044 25.3369V23.3857H224.77C222.777 23.3857 221.781 23.9688 221.781 25.1348C221.781 25.6445 221.951 26.043 222.291 26.3301C222.631 26.6172 223.067 26.7607 223.601 26.7607ZM234.033 26.8486C234.613 26.8486 235.12 26.6729 235.554 26.3213C235.987 25.9697 236.228 25.5303 236.274 25.0029H237.812C237.783 25.5479 237.596 26.0664 237.25 26.5586C236.904 27.0508 236.441 27.4434 235.861 27.7363C235.287 28.0293 234.678 28.1758 234.033 28.1758C232.738 28.1758 231.707 27.7451 230.939 26.8838C230.178 26.0166 229.797 24.833 229.797 23.333V23.0605C229.797 22.1348 229.967 21.3115 230.307 20.5908C230.646 19.8701 231.133 19.3105 231.766 18.9121C232.404 18.5137 233.157 18.3145 234.024 18.3145C235.091 18.3145 235.976 18.6338 236.679 19.2725C237.388 19.9111 237.766 20.7402 237.812 21.7598H236.274C236.228 21.1445 235.993 20.6406 235.571 20.248C235.155 19.8496 234.64 19.6504 234.024 19.6504C233.198 19.6504 232.557 19.9492 232.1 20.5469C231.648 21.1387 231.423 21.9971 231.423 23.1221V23.4297C231.423 24.5254 231.648 25.3691 232.1 25.9609C232.551 26.5527 233.195 26.8486 234.033 26.8486ZM241.407 28H239.781V18.4902H241.407V28ZM239.649 15.9678C239.649 15.7041 239.729 15.4814 239.887 15.2998C240.051 15.1182 240.291 15.0273 240.607 15.0273C240.924 15.0273 241.164 15.1182 241.328 15.2998C241.492 15.4814 241.574 15.7041 241.574 15.9678C241.574 16.2314 241.492 16.4512 241.328 16.627C241.164 16.8027 240.924 16.8906 240.607 16.8906C240.291 16.8906 240.051 16.8027 239.887 16.627C239.729 16.4512 239.649 16.2314 239.649 15.9678ZM243.587 23.1572C243.587 22.2256 243.769 21.3877 244.132 20.6436C244.501 19.8994 245.011 19.3252 245.661 18.9209C246.317 18.5166 247.064 18.3145 247.902 18.3145C249.197 18.3145 250.243 18.7627 251.04 19.6592C251.843 20.5557 252.244 21.748 252.244 23.2363V23.3506C252.244 24.2764 252.065 25.1084 251.708 25.8467C251.356 26.5791 250.85 27.1504 250.188 27.5605C249.531 27.9707 248.775 28.1758 247.92 28.1758C246.631 28.1758 245.585 27.7275 244.782 26.8311C243.985 25.9346 243.587 24.748 243.587 23.2715V23.1572ZM245.222 23.3506C245.222 24.4053 245.465 25.252 245.951 25.8906C246.443 26.5293 247.1 26.8486 247.92 26.8486C248.746 26.8486 249.402 26.5264 249.889 25.8818C250.375 25.2314 250.618 24.3232 250.618 23.1572C250.618 22.1143 250.369 21.2705 249.871 20.626C249.379 19.9756 248.723 19.6504 247.902 19.6504C247.1 19.6504 246.452 19.9697 245.96 20.6084C245.468 21.2471 245.222 22.1611 245.222 23.3506ZM248.641 14.5H250.609L248.254 17.084H246.944L248.641 14.5ZM255.821 18.4902L255.874 19.6855C256.601 18.7715 257.55 18.3145 258.722 18.3145C260.731 18.3145 261.745 19.4482 261.763 21.7158V28H260.137V21.707C260.131 21.0215 259.973 20.5146 259.662 20.1865C259.357 19.8584 258.88 19.6943 258.229 19.6943C257.702 19.6943 257.239 19.835 256.841 20.1162C256.442 20.3975 256.132 20.7666 255.909 21.2236V28H254.283V18.4902H255.821ZM268.284 23.166C268.284 21.707 268.63 20.5352 269.321 19.6504C270.013 18.7598 270.918 18.3145 272.037 18.3145C273.15 18.3145 274.032 18.6953 274.683 19.457V14.5H276.309V28H274.814L274.735 26.9805C274.085 27.7773 273.18 28.1758 272.02 28.1758C270.918 28.1758 270.019 27.7246 269.321 26.8223C268.63 25.9199 268.284 24.7422 268.284 23.2891V23.166ZM269.91 23.3506C269.91 24.4287 270.133 25.2725 270.578 25.8818C271.023 26.4912 271.639 26.7959 272.424 26.7959C273.455 26.7959 274.208 26.333 274.683 25.4072V21.0391C274.196 20.1426 273.449 19.6943 272.441 19.6943C271.645 19.6943 271.023 20.002 270.578 20.6172C270.133 21.2324 269.91 22.1436 269.91 23.3506ZM282.786 28.1758C281.497 28.1758 280.448 27.7539 279.64 26.9102C278.831 26.0605 278.427 24.9268 278.427 23.5088V23.21C278.427 22.2666 278.605 21.4258 278.963 20.6875C279.326 19.9434 279.83 19.3633 280.475 18.9473C281.125 18.5254 281.828 18.3145 282.584 18.3145C283.82 18.3145 284.781 18.7217 285.467 19.5361C286.152 20.3506 286.495 21.5166 286.495 23.0342V23.7109H280.053C280.076 24.6484 280.349 25.4072 280.87 25.9873C281.397 26.5615 282.065 26.8486 282.874 26.8486C283.448 26.8486 283.935 26.7314 284.333 26.4971C284.731 26.2627 285.08 25.9521 285.379 25.5654L286.372 26.3389C285.575 27.5635 284.38 28.1758 282.786 28.1758ZM282.584 19.6504C281.928 19.6504 281.377 19.8906 280.932 20.3711C280.486 20.8457 280.211 21.5137 280.105 22.375H284.869V22.252C284.822 21.4258 284.6 20.7871 284.201 20.3359C283.803 19.8789 283.264 19.6504 282.584 19.6504ZM101.898 44.9395C101.74 46.293 101.239 47.3389 100.396 48.0771C99.5576 48.8096 98.4414 49.1758 97.0469 49.1758C95.5352 49.1758 94.3223 48.6338 93.4082 47.5498C92.5 46.4658 92.0459 45.0156 92.0459 43.1992V41.9688C92.0459 40.7793 92.2568 39.7334 92.6787 38.8311C93.1064 37.9287 93.71 37.2373 94.4893 36.7568C95.2686 36.2705 96.1709 36.0273 97.1963 36.0273C98.5557 36.0273 99.6455 36.4082 100.466 37.1699C101.286 37.9258 101.764 38.9746 101.898 40.3164H100.202C100.056 39.2969 99.7363 38.5586 99.2441 38.1016C98.7578 37.6445 98.0752 37.416 97.1963 37.416C96.1182 37.416 95.2715 37.8145 94.6562 38.6113C94.0469 39.4082 93.7422 40.542 93.7422 42.0127V43.252C93.7422 44.6406 94.0322 45.7451 94.6123 46.5654C95.1924 47.3857 96.0039 47.7959 97.0469 47.7959C97.9844 47.7959 98.7021 47.585 99.2002 47.1631C99.7041 46.7354 100.038 45.9941 100.202 44.9395H101.898ZM103.524 44.1572C103.524 43.2256 103.706 42.3877 104.069 41.6436C104.438 40.8994 104.948 40.3252 105.599 39.9209C106.255 39.5166 107.002 39.3145 107.84 39.3145C109.135 39.3145 110.181 39.7627 110.978 40.6592C111.78 41.5557 112.182 42.748 112.182 44.2363V44.3506C112.182 45.2764 112.003 46.1084 111.646 46.8467C111.294 47.5791 110.787 48.1504 110.125 48.5605C109.469 48.9707 108.713 49.1758 107.857 49.1758C106.568 49.1758 105.522 48.7275 104.72 47.8311C103.923 46.9346 103.524 45.748 103.524 44.2715V44.1572ZM105.159 44.3506C105.159 45.4053 105.402 46.252 105.889 46.8906C106.381 47.5293 107.037 47.8486 107.857 47.8486C108.684 47.8486 109.34 47.5264 109.826 46.8818C110.312 46.2314 110.556 45.3232 110.556 44.1572C110.556 43.1143 110.307 42.2705 109.809 41.626C109.316 40.9756 108.66 40.6504 107.84 40.6504C107.037 40.6504 106.39 40.9697 105.897 41.6084C105.405 42.2471 105.159 43.1611 105.159 44.3506ZM115.75 39.4902L115.794 40.5449C116.491 39.7246 117.432 39.3145 118.615 39.3145C119.945 39.3145 120.851 39.8242 121.331 40.8438C121.647 40.3867 122.058 40.0176 122.562 39.7363C123.071 39.4551 123.672 39.3145 124.363 39.3145C126.449 39.3145 127.51 40.4189 127.545 42.6279V49H125.919V42.7246C125.919 42.0449 125.764 41.5381 125.453 41.2041C125.143 40.8643 124.621 40.6943 123.889 40.6943C123.285 40.6943 122.784 40.876 122.386 41.2393C121.987 41.5967 121.756 42.0801 121.691 42.6895V49H120.057V42.7686C120.057 41.3857 119.38 40.6943 118.026 40.6943C116.96 40.6943 116.23 41.1484 115.838 42.0566V49H114.212V39.4902H115.75ZM138.039 44.3506C138.039 45.7979 137.708 46.9639 137.046 47.8486C136.384 48.7334 135.487 49.1758 134.356 49.1758C133.202 49.1758 132.294 48.8096 131.632 48.0771V52.6562H130.006V39.4902H131.491L131.57 40.5449C132.232 39.7246 133.152 39.3145 134.33 39.3145C135.473 39.3145 136.375 39.7451 137.037 40.6064C137.705 41.4678 138.039 42.666 138.039 44.2012V44.3506ZM136.413 44.166C136.413 43.0938 136.185 42.2471 135.728 41.626C135.271 41.0049 134.644 40.6943 133.847 40.6943C132.862 40.6943 132.124 41.1309 131.632 42.0039V46.5479C132.118 47.415 132.862 47.8486 133.864 47.8486C134.644 47.8486 135.262 47.541 135.719 46.9258C136.182 46.3047 136.413 45.3848 136.413 44.166ZM139.683 44.1572C139.683 43.2256 139.864 42.3877 140.228 41.6436C140.597 40.8994 141.106 40.3252 141.757 39.9209C142.413 39.5166 143.16 39.3145 143.998 39.3145C145.293 39.3145 146.339 39.7627 147.136 40.6592C147.938 41.5557 148.34 42.748 148.34 44.2363V44.3506C148.34 45.2764 148.161 46.1084 147.804 46.8467C147.452 47.5791 146.945 48.1504 146.283 48.5605C145.627 48.9707 144.871 49.1758 144.016 49.1758C142.727 49.1758 141.681 48.7275 140.878 47.8311C140.081 46.9346 139.683 45.748 139.683 44.2715V44.1572ZM141.317 44.3506C141.317 45.4053 141.561 46.252 142.047 46.8906C142.539 47.5293 143.195 47.8486 144.016 47.8486C144.842 47.8486 145.498 47.5264 145.984 46.8818C146.471 46.2314 146.714 45.3232 146.714 44.1572C146.714 43.1143 146.465 42.2705 145.967 41.626C145.475 40.9756 144.818 40.6504 143.998 40.6504C143.195 40.6504 142.548 40.9697 142.056 41.6084C141.563 42.2471 141.317 43.1611 141.317 44.3506ZM151.917 39.4902L151.97 40.6855C152.696 39.7715 153.646 39.3145 154.817 39.3145C156.827 39.3145 157.841 40.4482 157.858 42.7158V49H156.232V42.707C156.227 42.0215 156.068 41.5146 155.758 41.1865C155.453 40.8584 154.976 40.6943 154.325 40.6943C153.798 40.6943 153.335 40.835 152.937 41.1162C152.538 41.3975 152.228 41.7666 152.005 42.2236V49H150.379V39.4902H151.917ZM164.257 49.1758C162.968 49.1758 161.919 48.7539 161.11 47.9102C160.302 47.0605 159.897 45.9268 159.897 44.5088V44.21C159.897 43.2666 160.076 42.4258 160.434 41.6875C160.797 40.9434 161.301 40.3633 161.945 39.9473C162.596 39.5254 163.299 39.3145 164.055 39.3145C165.291 39.3145 166.252 39.7217 166.938 40.5361C167.623 41.3506 167.966 42.5166 167.966 44.0342V44.7109H161.523C161.547 45.6484 161.819 46.4072 162.341 46.9873C162.868 47.5615 163.536 47.8486 164.345 47.8486C164.919 47.8486 165.405 47.7314 165.804 47.4971C166.202 47.2627 166.551 46.9521 166.85 46.5654L167.843 47.3389C167.046 48.5635 165.851 49.1758 164.257 49.1758ZM164.055 40.6504C163.398 40.6504 162.848 40.8906 162.402 41.3711C161.957 41.8457 161.682 42.5137 161.576 43.375H166.34V43.252C166.293 42.4258 166.07 41.7871 165.672 41.3359C165.273 40.8789 164.734 40.6504 164.055 40.6504ZM171.394 39.4902L171.446 40.6855C172.173 39.7715 173.122 39.3145 174.294 39.3145C176.304 39.3145 177.317 40.4482 177.335 42.7158V49H175.709V42.707C175.703 42.0215 175.545 41.5146 175.234 41.1865C174.93 40.8584 174.452 40.6943 173.802 40.6943C173.274 40.6943 172.812 40.835 172.413 41.1162C172.015 41.3975 171.704 41.7666 171.481 42.2236V49H169.855V39.4902H171.394ZM181.993 37.1875V39.4902H183.769V40.7471H181.993V46.6445C181.993 47.0254 182.072 47.3125 182.23 47.5059C182.389 47.6934 182.658 47.7871 183.039 47.7871C183.227 47.7871 183.484 47.752 183.812 47.6816V49C183.385 49.1172 182.969 49.1758 182.564 49.1758C181.838 49.1758 181.29 48.9561 180.921 48.5166C180.552 48.0771 180.367 47.4531 180.367 46.6445V40.7471H178.636V39.4902H180.367V37.1875H181.993ZM189.622 49.1758C188.333 49.1758 187.284 48.7539 186.476 47.9102C185.667 47.0605 185.263 45.9268 185.263 44.5088V44.21C185.263 43.2666 185.441 42.4258 185.799 41.6875C186.162 40.9434 186.666 40.3633 187.311 39.9473C187.961 39.5254 188.664 39.3145 189.42 39.3145C190.656 39.3145 191.617 39.7217 192.303 40.5361C192.988 41.3506 193.331 42.5166 193.331 44.0342V44.7109H186.889C186.912 45.6484 187.185 46.4072 187.706 46.9873C188.233 47.5615 188.901 47.8486 189.71 47.8486C190.284 47.8486 190.771 47.7314 191.169 47.4971C191.567 47.2627 191.916 46.9521 192.215 46.5654L193.208 47.3389C192.411 48.5635 191.216 49.1758 189.622 49.1758ZM189.42 40.6504C188.764 40.6504 188.213 40.8906 187.768 41.3711C187.322 41.8457 187.047 42.5137 186.941 43.375H191.705V43.252C191.658 42.4258 191.436 41.7871 191.037 41.3359C190.639 40.8789 190.1 40.6504 189.42 40.6504ZM200.758 46.4775C200.758 46.0381 200.591 45.6982 200.257 45.458C199.929 45.2119 199.352 45.001 198.525 44.8252C197.705 44.6494 197.052 44.4385 196.565 44.1924C196.085 43.9463 195.728 43.6533 195.493 43.3135C195.265 42.9736 195.15 42.5693 195.15 42.1006C195.15 41.3213 195.479 40.6621 196.135 40.123C196.797 39.584 197.641 39.3145 198.666 39.3145C199.744 39.3145 200.617 39.5928 201.285 40.1494C201.959 40.7061 202.296 41.418 202.296 42.2852H200.661C200.661 41.8398 200.471 41.4561 200.09 41.1338C199.715 40.8115 199.24 40.6504 198.666 40.6504C198.074 40.6504 197.611 40.7793 197.277 41.0371C196.943 41.2949 196.776 41.6318 196.776 42.0479C196.776 42.4404 196.932 42.7363 197.242 42.9355C197.553 43.1348 198.112 43.3252 198.921 43.5068C199.735 43.6885 200.395 43.9053 200.898 44.1572C201.402 44.4092 201.774 44.7139 202.015 45.0713C202.261 45.4229 202.384 45.8535 202.384 46.3633C202.384 47.2129 202.044 47.8955 201.364 48.4111C200.685 48.9209 199.803 49.1758 198.719 49.1758C197.957 49.1758 197.283 49.041 196.697 48.7715C196.111 48.502 195.651 48.127 195.317 47.6465C194.989 47.1602 194.825 46.6357 194.825 46.0732H196.451C196.48 46.6182 196.697 47.0518 197.102 47.374C197.512 47.6904 198.051 47.8486 198.719 47.8486C199.334 47.8486 199.826 47.7256 200.195 47.4795C200.57 47.2275 200.758 46.8936 200.758 46.4775Z" fill="#FFFDFD"/>
<path d="M92.7676 69.2334H96.1367V70H91.8252V62.8906H92.7676V69.2334ZM100.326 70C100.274 69.8958 100.232 69.7103 100.199 69.4434C99.7793 69.8796 99.278 70.0977 98.6953 70.0977C98.1745 70.0977 97.7464 69.9512 97.4111 69.6582C97.0791 69.362 96.9131 68.9876 96.9131 68.5352C96.9131 67.985 97.1214 67.5586 97.5381 67.2559C97.958 66.9499 98.5472 66.7969 99.3057 66.7969H100.185V66.3818C100.185 66.0661 100.09 65.8154 99.9014 65.6299C99.7126 65.4411 99.4342 65.3467 99.0664 65.3467C98.7441 65.3467 98.474 65.4281 98.2559 65.5908C98.0378 65.7536 97.9287 65.9505 97.9287 66.1816H97.0205C97.0205 65.918 97.1133 65.6641 97.2988 65.4199C97.4876 65.1725 97.7415 64.9772 98.0605 64.834C98.3828 64.6908 98.736 64.6191 99.1201 64.6191C99.7288 64.6191 100.206 64.7721 100.551 65.0781C100.896 65.3809 101.075 65.7992 101.088 66.333V68.7646C101.088 69.2497 101.15 69.6354 101.273 69.9219V70H100.326ZM98.8271 69.3115C99.1104 69.3115 99.3789 69.2383 99.6328 69.0918C99.8867 68.9453 100.071 68.7549 100.185 68.5205V67.4365H99.4766C98.3698 67.4365 97.8164 67.7604 97.8164 68.4082C97.8164 68.6914 97.9108 68.9128 98.0996 69.0723C98.2884 69.2318 98.5309 69.3115 98.8271 69.3115ZM108.104 62.8906H109.047V67.9248C109.047 68.6051 108.842 69.1374 108.432 69.5215C108.025 69.9056 107.481 70.0977 106.801 70.0977C106.094 70.0977 105.544 69.917 105.15 69.5557C104.757 69.1943 104.56 68.6882 104.56 68.0371H105.497C105.497 68.444 105.608 68.7614 105.829 68.9893C106.054 69.2171 106.378 69.3311 106.801 69.3311C107.188 69.3311 107.501 69.209 107.738 68.9648C107.979 68.7207 108.101 68.3789 108.104 67.9395V62.8906ZM110.263 67.3096C110.263 66.792 110.364 66.3265 110.565 65.9131C110.771 65.4997 111.054 65.1807 111.415 64.9561C111.78 64.7314 112.195 64.6191 112.66 64.6191C113.38 64.6191 113.961 64.8682 114.403 65.3662C114.849 65.8643 115.072 66.5267 115.072 67.3535V67.417C115.072 67.9313 114.973 68.3936 114.774 68.8037C114.579 69.2106 114.298 69.528 113.93 69.7559C113.565 69.9837 113.145 70.0977 112.67 70.0977C111.954 70.0977 111.373 69.8486 110.927 69.3506C110.484 68.8525 110.263 68.1934 110.263 67.373V67.3096ZM111.171 67.417C111.171 68.0029 111.306 68.4733 111.576 68.8281C111.85 69.1829 112.214 69.3604 112.67 69.3604C113.129 69.3604 113.493 69.1813 113.764 68.8232C114.034 68.4619 114.169 67.9574 114.169 67.3096C114.169 66.7301 114.031 66.2614 113.754 65.9033C113.48 65.542 113.116 65.3613 112.66 65.3613C112.214 65.3613 111.854 65.5387 111.581 65.8936C111.308 66.2484 111.171 66.7562 111.171 67.417ZM117.855 68.6768L119.086 64.7168H120.053L117.929 70.8154C117.6 71.6943 117.077 72.1338 116.361 72.1338L116.19 72.1191L115.854 72.0557V71.3232L116.098 71.3428C116.404 71.3428 116.641 71.2809 116.811 71.1572C116.983 71.0335 117.125 70.8073 117.235 70.4785L117.436 69.9414L115.551 64.7168H116.537L117.855 68.6768ZM124.047 70C123.995 69.8958 123.952 69.7103 123.92 69.4434C123.5 69.8796 122.999 70.0977 122.416 70.0977C121.895 70.0977 121.467 69.9512 121.132 69.6582C120.8 69.362 120.634 68.9876 120.634 68.5352C120.634 67.985 120.842 67.5586 121.259 67.2559C121.679 66.9499 122.268 66.7969 123.026 66.7969H123.905V66.3818C123.905 66.0661 123.811 65.8154 123.622 65.6299C123.433 65.4411 123.155 65.3467 122.787 65.3467C122.465 65.3467 122.195 65.4281 121.977 65.5908C121.758 65.7536 121.649 65.9505 121.649 66.1816H120.741C120.741 65.918 120.834 65.6641 121.02 65.4199C121.208 65.1725 121.462 64.9772 121.781 64.834C122.104 64.6908 122.457 64.6191 122.841 64.6191C123.45 64.6191 123.926 64.7721 124.271 65.0781C124.617 65.3809 124.796 65.7992 124.809 66.333V68.7646C124.809 69.2497 124.87 69.6354 124.994 69.9219V70H124.047ZM122.548 69.3115C122.831 69.3115 123.1 69.2383 123.354 69.0918C123.607 68.9453 123.791 68.7549 123.905 68.5205V67.4365H123.197C122.09 67.4365 121.537 67.7604 121.537 68.4082C121.537 68.6914 121.632 68.9128 121.82 69.0723C122.009 69.2318 122.252 69.3115 122.548 69.3115Z" fill="#FFFDFD"/>
<g clip-path="url(#clip0)">
<rect width="82" height="82" fill="#E5AE40"/>
<rect x="68" y="25.8146" width="96" height="95.939" rx="2" transform="rotate(-47.5318 68 25.8146)" fill="#000002" fill-opacity="0.25"/>
<rect x="68" y="25.8146" width="96" height="95.939" rx="2" transform="rotate(-47.5318 68 25.8146)" fill="url(#paint0_linear)"/>
<rect x="-43.3311" y="38.629" width="68.8838" height="119.201" rx="5" transform="rotate(-43.0439 -43.3311 38.629)" fill="url(#paint1_linear)"/>
<rect x="-43.3311" y="38.629" width="68.8838" height="119.201" rx="5" transform="rotate(-43.0439 -43.3311 38.629)" fill="#000002" fill-opacity="0.8"/>
<rect x="-43.3311" y="38.629" width="68.8838" height="119.201" rx="5" transform="rotate(-43.0439 -43.3311 38.629)" fill="url(#paint2_diamond)" fill-opacity="0.75"/>
<rect x="-21.7907" y="83.2969" width="137.24" height="68.8369" rx="5" transform="rotate(-42.1525 -21.7907 83.2969)" fill="url(#paint3_linear)" fill-opacity="0.95"/>
<rect x="-90" y="1.40803" width="96" height="95.939" rx="2" transform="rotate(-40.5479 -90 1.40803)" fill="#000002" fill-opacity="0.6"/>
<rect x="-90" y="1.40803" width="96" height="95.939" rx="2" transform="rotate(-40.5479 -90 1.40803)" fill="url(#paint4_linear)"/>
<path d="M45.5102 61H40.5102V56.5C40.5102 55 39.0102 55 39.0102 56.5V69C39.0102 70.5 40.5102 70.5 40.5102 69V64.5H45.5102V68.5C45.5102 68.5 45.5102 74.5 39.5102 74.5C33.5102 74.5 34.0102 68.5 34.0102 68.5V55.5C34.0102 55.5 34.0102 51 39.5102 51C45.0102 51 45.5102 55.5 45.5102 55.5V61Z" fill="#FFFDFD"/>
<path d="M73.5102 61H68.5102V56.5C68.5102 55 67.0102 55 67.0102 56.5V69C67.0102 70.5 68.5102 70.5 68.5102 69V64.5H73.5102V68.5C73.5102 68.5 73.5102 74.5 67.5102 74.5C61.5102 74.5 62.0102 68.5 62.0102 68.5V55.5C62.0102 55.5 62.0102 51 67.5102 51C73.0102 51 73.5102 55.5 73.5102 55.5V61Z" fill="#FFFDFD"/>
<path d="M59.4898 55.5L59.4898 63C59.4898 63 59.5 64 58.9898 65C58.4797 66 57.9898 66 57.9898 66L60.9898 74H55.9898L53.4898 66V63.5048C53.4898 63.5016 53.4898 63.5 53.4898 63.5V63.5048C53.4904 63.5558 53.509 64 53.9898 64C54.5 64 54.5 63.5 54.5 63.5L54.5 56.5C54.5 55 53 55 53 56.5V74H48V51H53.4797C58.9797 51 59.4898 55.5 59.4898 55.5Z" fill="#FFFDFD"/>
</g>
<defs>
<linearGradient id="paint0_linear" x1="91.4306" y1="44.784" x2="50.4014" y2="45.5652" gradientUnits="userSpaceOnUse">
<stop stop-color="#000002" stop-opacity="0.24"/>
<stop offset="1" stop-color="white" stop-opacity="0"/>
</linearGradient>
<linearGradient id="paint1_linear" x1="-27.3948" y1="81.3863" x2="53.7409" y2="116.114" gradientUnits="userSpaceOnUse">
<stop offset="0.252229" stop-color="#000002"/>
<stop offset="0.625712" stop-color="white" stop-opacity="0"/>
</linearGradient>
<radialGradient id="paint2_diamond" cx="0" cy="0" r="1" gradientUnits="userSpaceOnUse" gradientTransform="translate(-0.926616 69.162) rotate(5.28078) scale(44.9055 106.561)">
<stop offset="0.527272" stop-color="#000002"/>
<stop offset="0.706387" stop-color="#161410"/>
<stop offset="0.917215" stop-color="#2A251D"/>
</radialGradient>
<linearGradient id="paint3_linear" x1="49.8917" y1="114.064" x2="140.36" y2="110.98" gradientUnits="userSpaceOnUse">
<stop offset="0.135304" stop-color="#000002"/>
<stop offset="0.337279" stop-color="#000002" stop-opacity="0.41"/>
<stop offset="0.534531"/>
</linearGradient>
<linearGradient id="paint4_linear" x1="-42" y1="1.40803" x2="-42" y2="97.3471" gradientUnits="userSpaceOnUse">
<stop stop-color="#2A251D"/>
<stop offset="1" stop-color="#A6A29C" stop-opacity="0"/>
</linearGradient>
<clipPath id="clip0">
<rect width="82" height="82" fill="white"/>
</clipPath>
</defs>
</svg>
